<?xml version="1.0" encoding="UTF-8" standalone="no"?>
<!DOCTYPE svg PUBLIC "-//W3C//DTD SVG 1.1//EN" "http://www.w3.org/Graphics/SVG/1.1/DTD/svg11.dtd">
<!-- Created with Vectornator (http://vectornator.io/) -->
<svg height="100%" stroke-miterlimit="10" style="fill-rule:nonzero;clip-rule:evenodd;stroke-linecap:round;stroke-linejoin:round;" version="1.1" viewBox="0 0 1600 917" width="100%" xml:space="preserve" xmlns="http://www.w3.org/2000/svg" xmlns:xlink="http://www.w3.org/1999/xlink">
<defs/>
<g id="Ebene-1">
<path d="M998.15 145.296C994.615 146.003 985.954 146.357 972.168 146.357C958.381 146.357 944.241 147.594 929.747 150.069C915.253 152.543 897.047 154.488 875.13 155.902C853.213 157.316 838.012 158.023 829.528 158.023C821.043 158.023 815.741 157.846 813.62 157.492C811.499 157.139 810.261 156.432 809.908 155.371C809.554 154.311 806.196 153.957 799.833 154.311C793.47 154.664 789.051 154.488 786.576 153.781C784.102 153.074 782.511 153.25 781.804 154.311C781.451 154.841 781.097 155.371 780.744 155.902C780.567 155.371 780.39 154.841 780.213 154.311C779.86 153.25 778.976 152.897 777.562 153.25C776.148 153.604 775.087 153.427 774.38 152.72C773.673 152.013 770.315 151.306 764.306 150.599C758.296 149.892 747.691 149.538 732.49 149.538C717.289 149.538 708.451 150.069 705.977 151.129C703.502 152.19 699.437 152.72 693.781 152.72C690.953 152.72 688.125 152.72 685.297 152.72C685.297 152.367 685.297 152.013 685.297 151.659C685.297 151.306 685.297 150.952 685.297 150.599C682.292 150.952 679.287 151.306 676.282 151.659C670.273 152.367 667.091 152.19 666.738 151.129C666.561 150.599 666.384 150.069 666.207 149.538C666.207 149.892 666.207 150.245 666.207 150.599C666.207 151.306 664.44 151.836 660.905 152.19C657.37 152.543 655.425 152.367 655.072 151.659C654.895 151.306 654.718 150.952 654.542 150.599C654.188 150.952 653.835 151.306 653.481 151.659C653.128 152.013 652.774 152.367 652.421 152.72C652.244 152.367 652.067 152.013 651.89 151.659C651.537 150.952 650.653 150.599 649.239 150.599C648.532 150.599 647.825 150.599 647.118 150.599C647.118 150.952 647.118 151.306 647.118 151.659C647.118 152.013 647.118 152.367 647.118 152.72C645.174 152.367 643.229 152.013 641.285 151.659C639.341 151.306 637.397 150.952 635.452 150.599C635.452 150.952 635.452 151.306 635.452 151.659C635.452 152.013 635.452 152.367 635.452 152.72C632.801 152.72 630.15 152.72 627.498 152.72C622.196 152.72 619.368 152.367 619.014 151.659C618.661 150.952 614.949 150.599 607.879 150.599C600.809 150.599 596.036 150.069 593.562 149.008C591.087 147.948 588.789 147.771 586.668 148.478C584.547 149.185 582.249 149.538 579.775 149.538C577.3 149.538 575.71 149.185 575.003 148.478C574.296 147.771 568.816 147.417 558.564 147.417C548.313 147.417 540.359 147.594 534.703 147.948C529.047 148.301 526.042 148.831 525.688 149.538C525.335 150.245 513.846 150.422 491.221 150.069C468.597 149.715 456.931 149.892 456.224 150.599C455.517 151.306 454.633 151.306 453.573 150.599C452.512 149.892 442.791 149.538 424.409 149.538C406.026 149.538 395.774 150.069 393.653 151.129C391.532 152.19 389.588 152.543 387.821 152.19C386.053 151.836 384.816 152.013 384.109 152.72C383.402 153.427 381.281 153.781 377.746 153.781C374.211 153.781 366.787 155.018 355.475 157.492C344.162 159.967 334.618 163.679 326.841 168.628C319.063 173.577 312.524 179.587 307.221 186.657C301.918 193.727 298.56 199.56 297.146 204.155C295.732 208.751 294.495 217.235 293.434 229.608C292.374 241.981 292.197 250.818 292.904 256.121C293.611 261.423 293.434 264.251 292.374 264.605C291.313 264.958 290.606 265.842 290.253 267.256C289.899 268.67 289.899 271.852 290.253 276.801C290.606 281.75 290.429 286.346 289.722 290.588C289.015 294.83 290.076 304.198 292.904 318.692C295.732 333.185 296.616 350.507 295.555 370.657C294.495 390.807 294.318 402.119 295.025 404.594C295.732 407.068 296.086 414.315 296.086 426.334C296.086 438.354 296.616 446.484 297.676 450.726C298.737 454.968 298.914 459.211 298.207 463.453C297.5 467.695 297.5 470.346 298.207 471.407C298.56 471.937 298.914 472.467 299.267 472.997C298.914 472.997 298.56 472.997 298.207 472.997C297.5 472.997 296.793 477.593 296.086 486.784C295.379 495.975 295.379 500.924 296.086 501.631C296.793 502.338 297.146 508.348 297.146 519.66C297.146 530.972 297.676 539.28 298.737 544.582C299.797 549.885 300.151 557.132 299.797 566.323C299.444 575.514 299.444 582.231 299.797 586.473C300.151 590.715 300.681 593.19 301.388 593.897C302.095 594.604 302.095 598.669 301.388 606.093C300.681 613.516 300.151 636.848 299.797 676.087C299.444 715.326 298.207 746.081 296.086 768.352C293.964 790.623 291.843 807.415 289.722 818.727C287.601 830.039 286.894 835.872 287.601 836.226C288.308 836.579 288.485 839.054 288.132 843.649C287.778 848.245 287.248 850.896 286.541 851.603C285.834 852.31 285.48 853.017 285.48 853.724C285.48 854.078 285.48 854.431 285.48 854.785C285.834 854.608 286.187 854.431 286.541 854.255C286.894 854.078 287.248 853.901 287.601 853.724C287.248 854.255 286.894 854.785 286.541 855.315C285.834 856.376 285.834 857.259 286.541 857.966C287.248 858.673 287.778 862.032 288.132 868.041C288.485 874.051 289.015 877.233 289.722 877.586C290.429 877.94 291.136 880.237 291.843 884.479C292.55 888.722 297.323 890.843 306.16 890.843C310.579 890.843 314.998 890.843 319.417 890.843C318.71 886.424 318.003 882.005 317.296 877.586C315.882 868.748 315.175 857.966 315.175 845.24C315.175 832.514 315.882 822.262 317.296 814.485C318.71 806.708 320.654 789.386 323.129 762.52C325.603 735.653 327.194 699.419 327.901 653.816C328.608 608.214 328.608 585.059 327.901 584.352C327.194 583.645 327.017 578.166 327.371 567.914C327.724 557.662 327.371 549.178 326.31 542.461C325.25 535.745 324.896 528.498 325.25 520.721C325.603 512.944 325.427 507.287 324.72 503.752C324.013 500.217 324.013 494.915 324.72 487.845C325.427 480.774 325.25 464.867 324.189 440.121C323.129 415.376 322.952 391.867 323.659 369.597C324.366 347.326 323.482 330.888 321.008 320.282C318.533 309.677 317.826 297.835 318.887 284.755C319.947 271.675 320.124 264.428 319.417 263.014C318.71 261.6 316.942 260.363 314.114 259.302C311.286 258.242 310.579 252.055 311.993 240.743C313.407 229.431 315.352 221.3 317.826 216.351C320.301 211.402 323.306 207.16 326.841 203.625C330.376 200.09 334.971 196.732 340.627 193.55C346.284 190.369 358.656 187.01 377.746 183.475C396.835 179.94 416.455 178.526 436.605 179.233C456.754 179.94 467.713 179.94 469.481 179.233C471.248 178.526 481.853 178.349 501.296 178.703C520.739 179.056 533.112 178.703 538.415 177.642C543.717 176.582 551.848 176.051 562.807 176.051C573.765 176.051 589.32 176.935 609.469 178.703C629.619 180.47 650.83 181.354 673.101 181.354C695.372 181.354 712.163 180.824 723.475 179.763C734.788 178.703 740.621 178.526 740.974 179.233C741.328 179.94 746.1 180.294 755.291 180.294C764.482 180.294 772.259 181.001 778.623 182.415C784.986 183.829 792.056 184.536 799.833 184.536C807.61 184.536 824.578 184.005 850.738 182.945C876.897 181.884 903.057 179.763 929.216 176.582C955.376 173.4 980.298 171.809 1003.98 171.809C1027.67 171.809 1041.45 172.163 1045.34 172.87C1049.23 173.577 1056.13 173.754 1066.02 173.4C1075.92 173.047 1091.48 174.284 1112.69 177.112C1133.9 179.94 1146.27 181.177 1149.8 180.824C1153.34 180.47 1165.54 181.354 1186.39 183.475C1207.25 185.596 1227.4 187.01 1246.84 187.717C1266.29 188.424 1279.19 189.308 1285.55 190.369C1291.91 191.429 1303.4 191.606 1320.02 190.899C1336.63 190.192 1350.42 190.545 1361.38 191.959C1372.34 193.373 1384.18 194.08 1396.91 194.08C1409.63 194.08 1425.54 193.197 1444.63 191.429C1463.72 189.661 1486.7 188.954 1513.56 189.308C1540.43 189.661 1554.04 189.485 1554.39 188.778C1554.75 188.071 1555.81 187.717 1557.58 187.717C1559.34 187.717 1561.29 186.303 1563.41 183.475C1565.53 180.647 1566.06 175.875 1565 169.158C1564.47 165.8 1563.94 162.441 1563.41 159.083C1561.64 159.613 1559.87 160.144 1558.11 160.674C1554.57 161.734 1548.91 161.911 1541.14 161.204C1533.36 160.497 1525.05 160.497 1516.21 161.204C1507.38 161.911 1501.9 161.911 1499.78 161.204C1497.66 160.497 1479.27 161.381 1444.63 163.855C1409.99 166.33 1385.06 166.684 1369.86 164.916C1354.66 163.148 1338.93 162.795 1322.67 163.855C1306.41 164.916 1289.09 164.386 1270.7 162.265C1252.32 160.144 1237.3 159.083 1225.63 159.083C1213.97 159.083 1198.06 158.023 1177.91 155.902C1157.76 153.781 1146.09 152.897 1142.91 153.25C1139.73 153.604 1130.72 152.72 1115.87 150.599C1101.02 148.478 1078.57 146.887 1048.53 145.827C1018.48 144.766 1001.69 144.589 998.15 145.296ZM442.968 310.207C442.614 311.268 441.73 311.798 440.316 311.798C439.609 311.798 438.902 311.798 438.195 311.798C438.549 312.328 438.902 312.859 439.256 313.389C439.609 313.919 439.963 314.449 440.316 314.98C439.609 314.98 438.902 314.98 438.195 314.98C437.488 314.98 436.781 314.98 436.074 314.98C436.074 315.333 436.074 315.687 436.074 316.04C436.074 316.747 436.605 317.278 437.665 317.631C438.195 317.808 438.726 317.985 439.256 318.161C439.079 318.692 438.902 319.222 438.726 319.752C438.372 320.813 439.079 322.227 440.847 323.994C442.614 325.762 444.735 332.478 447.21 344.144C449.684 355.81 451.275 361.996 451.982 362.703C452.689 363.41 454.28 363.587 456.754 363.233C459.229 362.88 461.173 361.643 462.587 359.522C464.001 357.401 465.415 356.34 466.829 356.34C467.536 356.34 468.243 356.34 468.95 356.34C468.774 354.926 468.597 353.512 468.42 352.098C468.243 350.684 468.067 349.27 467.89 347.856C468.243 347.856 468.597 347.856 468.95 347.856C469.304 347.856 469.657 347.856 470.011 347.856C469.304 342.553 468.597 337.251 467.89 331.948C466.476 321.343 464.885 314.803 463.118 312.328C461.35 309.854 459.229 308.617 456.754 308.617C455.517 308.617 454.28 308.617 453.043 308.617C453.043 308.97 453.043 309.324 453.043 309.677C453.043 310.031 453.043 310.384 453.043 310.738C451.452 310.384 449.861 310.031 448.27 309.677C445.089 308.97 443.321 309.147 442.968 310.207ZM524.628 320.282C522.153 323.11 519.855 327.529 517.734 333.539C515.613 339.548 514.199 345.205 513.492 350.507C512.785 355.81 513.316 359.168 515.083 360.582C516.851 361.996 519.502 362.173 523.037 361.112C526.572 360.052 529.577 358.284 532.051 355.81C534.526 353.335 536.47 349.447 537.884 344.144C539.298 338.841 540.359 333.009 541.066 326.645C541.419 323.464 541.773 320.282 542.126 317.101C539.829 316.924 537.531 316.747 535.233 316.57C530.637 316.217 527.102 317.454 524.628 320.282ZM612.121 341.493C611.414 342.907 610 343.614 607.879 343.614C605.758 343.614 603.46 344.674 600.985 346.795C598.511 348.916 595.859 352.982 593.031 358.991C590.203 365.001 589.143 369.243 589.85 371.718C590.557 374.192 593.562 374.899 598.864 373.839C604.167 372.778 606.995 371.541 607.348 370.127C607.702 368.713 608.586 367.652 610 366.945C611.414 366.238 613.358 362.526 615.833 355.81C618.307 349.093 619.544 345.205 619.544 344.144C619.544 343.614 619.544 343.084 619.544 342.553C618.837 342.553 618.13 342.553 617.423 342.553C616.009 342.553 614.949 342.023 614.242 340.962C613.888 340.432 613.535 339.902 613.181 339.372C612.828 340.079 612.474 340.786 612.121 341.493ZM406.38 370.657C405.673 371.718 403.552 372.248 400.017 372.248C396.482 372.248 394.184 373.485 393.123 375.96C392.063 378.434 393.3 382.5 396.835 388.156C400.37 393.812 403.905 397.347 407.44 398.761C410.975 400.175 414.687 399.821 418.576 397.7C422.464 395.579 424.409 393.105 424.409 390.277C424.409 387.449 423.702 384.621 422.288 381.793C420.873 378.964 418.045 376.136 413.803 373.308C411.682 371.894 409.561 370.48 407.44 369.066C407.087 369.597 406.733 370.127 406.38 370.657ZM1517.28 377.02C1516.21 378.081 1515.86 383.737 1516.21 393.989C1516.57 404.24 1516.21 419.088 1515.15 438.53C1514.09 457.973 1513.56 475.295 1513.56 490.496C1513.56 505.697 1514.09 515.948 1515.15 521.251C1515.68 523.902 1516.21 526.554 1516.75 529.205C1514.45 529.028 1512.15 528.851 1509.85 528.675C1505.26 528.321 1499.78 526.73 1493.41 523.902C1487.05 521.074 1481.75 517.362 1477.51 512.767C1473.26 508.171 1471.32 504.283 1471.67 501.101C1472.03 497.92 1473.09 494.915 1474.85 492.087C1476.62 489.259 1478.92 486.607 1481.75 484.133C1484.58 481.658 1490.06 479.891 1498.19 478.83C1506.32 477.77 1510.38 476.356 1510.38 474.588C1510.38 472.821 1509.85 471.583 1508.79 470.876C1507.73 470.169 1504.37 469.639 1498.72 469.286C1493.06 468.932 1486.7 470.346 1479.63 473.528C1472.56 476.709 1467.96 479.36 1465.84 481.481C1463.72 483.603 1462.84 485.017 1463.19 485.724C1463.54 486.431 1463.01 487.668 1461.6 489.435C1460.18 491.203 1459.12 494.738 1458.42 500.041C1457.71 505.343 1458.77 510.116 1461.6 514.358C1464.43 518.6 1467.96 522.312 1472.2 525.493C1476.45 528.675 1482.45 531.503 1490.23 533.977C1498.01 536.452 1503.84 537.689 1507.73 537.689C1511.62 537.689 1514.8 537.159 1517.28 536.098C1519.75 535.038 1522.05 536.629 1524.17 540.871C1526.29 545.113 1528.76 547.587 1531.59 548.294C1534.42 549.001 1536.54 548.825 1537.96 547.764C1539.37 546.704 1540.08 545.466 1540.08 544.052C1540.08 542.638 1538.84 539.457 1536.36 534.508C1533.89 529.558 1531.95 523.549 1530.53 516.479C1529.12 509.409 1528.59 495.268 1528.94 474.058C1529.29 452.847 1529.82 441.535 1530.53 440.121C1531.24 438.707 1531.42 428.809 1531.06 410.427C1530.71 392.044 1530.18 381.793 1529.47 379.671C1528.76 377.55 1526.82 376.313 1523.64 375.96C1520.46 375.606 1518.34 375.96 1517.28 377.02ZM482.207 390.277C470.541 393.812 462.411 397.7 457.815 401.942C453.219 406.185 448.801 414.669 444.558 427.395C440.316 440.121 438.372 449.489 438.726 455.499C439.079 461.508 440.316 468.932 442.437 477.77C444.558 486.607 447.387 493.147 450.922 497.389C454.457 501.631 456.754 503.752 457.815 503.752C458.875 503.752 460.29 504.636 462.057 506.404C463.825 508.171 471.248 511.706 484.328 517.009C497.408 522.312 510.134 525.316 522.507 526.023C534.879 526.73 545.131 525.847 553.262 523.372C561.393 520.898 568.463 517.009 574.472 511.706C580.482 506.404 585.784 499.334 590.38 490.496C594.976 481.658 597.804 474.058 598.864 467.695C599.925 461.332 599.748 452.671 598.334 441.712C596.92 430.753 594.445 422.446 590.91 416.79C587.375 411.134 584.017 406.715 580.835 403.533C577.654 400.352 574.296 397.877 570.76 396.11C567.225 394.342 561.923 392.574 554.853 390.807C547.782 389.039 541.419 388.332 535.763 388.686C532.935 388.863 530.107 389.039 527.279 389.216C527.279 388.863 527.279 388.509 527.279 388.156C527.279 387.449 525.865 386.742 523.037 386.035C520.209 385.328 515.613 384.974 509.25 384.974C502.887 384.974 493.873 386.742 482.207 390.277ZM1314.19 389.746C1312.77 392.221 1312.24 395.049 1312.59 398.231C1312.95 401.412 1312.77 404.063 1312.06 406.185C1311.36 408.306 1311.36 409.72 1312.06 410.427C1312.77 411.134 1312.59 414.669 1311.53 421.032C1310.47 427.395 1310.12 432.698 1310.47 436.94C1310.83 441.182 1310.65 443.833 1309.94 444.894C1309.24 445.954 1308.88 453.201 1308.88 466.634C1308.88 480.067 1308.53 487.138 1307.82 487.845C1307.12 488.552 1306.76 492.44 1306.76 499.51C1306.76 506.58 1308 512.944 1310.47 518.6C1312.95 524.256 1315.07 527.791 1316.84 529.205C1318.6 530.619 1322.14 532.21 1327.44 533.977C1332.74 535.745 1337.69 536.452 1342.29 536.098C1346.88 535.745 1350.6 534.861 1353.42 533.447C1356.25 532.033 1359.08 529.912 1361.91 527.084C1364.74 524.256 1366.15 522.312 1366.15 521.251C1366.15 520.191 1367.03 518.776 1368.8 517.009C1370.57 515.241 1371.45 513.651 1371.45 512.237C1371.45 510.823 1371.98 509.762 1373.04 509.055C1373.57 508.702 1374.11 508.348 1374.64 507.995C1374.99 508.878 1375.34 509.762 1375.7 510.646C1376.4 512.413 1377.82 514.181 1379.94 515.948C1382.06 517.716 1386.12 519.837 1392.13 522.312C1398.14 524.786 1404.33 525.67 1410.69 524.963C1417.06 524.256 1421.12 523.195 1422.89 521.781C1424.66 520.367 1425.72 518.953 1426.07 517.539C1426.42 516.125 1427.31 515.418 1428.72 515.418C1430.14 515.418 1431.9 516.832 1434.02 519.66C1436.15 522.488 1438.44 524.609 1440.92 526.023C1443.39 527.437 1446.93 528.144 1451.52 528.144C1453.82 528.144 1456.12 528.144 1458.42 528.144C1458.24 527.261 1458.06 526.377 1457.89 525.493C1457.53 523.726 1456.65 522.135 1455.23 520.721C1453.82 519.307 1452.41 518.6 1450.99 518.6C1449.58 518.6 1446.4 515.595 1441.45 509.585C1436.5 503.576 1433.49 496.682 1432.43 488.905C1431.37 481.128 1431.02 475.295 1431.37 471.407C1431.73 467.518 1430.84 463.983 1428.72 460.801C1426.6 457.62 1424.48 456.559 1422.36 457.62C1420.24 458.68 1418.29 458.68 1416.53 457.62C1414.76 456.559 1410.87 456.559 1404.86 457.62C1398.85 458.68 1393.55 461.155 1388.95 465.043C1384.36 468.932 1381 472.644 1378.88 476.179C1376.76 479.714 1375.52 482.896 1375.17 485.724C1374.81 488.552 1374.11 489.966 1373.04 489.966C1371.98 489.966 1370.75 488.552 1369.33 485.724C1367.92 482.896 1364.74 479.537 1359.79 475.649C1354.84 471.76 1350.24 469.286 1346 468.225C1341.76 467.164 1336.99 466.811 1331.68 467.164C1329.03 467.341 1326.38 467.518 1323.73 467.695C1323.55 464.867 1323.38 462.039 1323.2 459.211C1322.85 453.554 1322.85 448.959 1323.2 445.424C1323.55 441.889 1324.08 439.944 1324.79 439.591C1325.5 439.237 1325.67 436.233 1325.32 430.576C1324.97 424.92 1325.5 417.32 1326.91 407.775C1328.33 398.231 1328.5 392.398 1327.44 390.277C1326.38 388.156 1324.26 386.918 1321.08 386.565C1317.9 386.211 1315.6 387.272 1314.19 389.746ZM796.651 390.807C795.237 391.867 794.707 395.579 795.061 401.942C795.414 408.306 795.237 413.255 794.53 416.79C793.823 420.325 794 433.228 795.061 455.499C795.591 466.634 796.121 477.77 796.651 488.905C796.298 488.905 795.944 488.905 795.591 488.905C794.884 488.905 794 495.445 792.94 508.525C791.879 521.605 792.586 528.321 795.061 528.675C797.535 529.028 799.479 528.321 800.893 526.554C802.307 524.786 803.722 521.605 805.136 517.009C806.55 512.413 807.08 508.348 806.726 504.813C806.373 501.278 806.903 496.682 808.317 491.026C809.731 485.37 810.261 481.128 809.908 478.3C809.731 476.886 809.554 475.472 809.378 474.058C814.15 474.058 818.922 474.058 823.695 474.058C833.239 474.058 839.602 472.997 842.784 470.876C845.966 468.755 848.087 467.695 849.147 467.695C850.208 467.695 850.915 468.578 851.268 470.346C851.622 472.114 851.798 479.007 851.798 491.026C851.798 503.045 852.152 510.646 852.859 513.827C853.566 517.009 854.627 519.307 856.041 520.721C857.455 522.135 859.045 523.019 860.813 523.372C862.58 523.726 864.348 523.019 866.116 521.251C867.883 519.483 867.883 512.944 866.116 501.631C864.348 490.319 863.464 471.053 863.464 443.833C863.464 416.613 862.404 402.296 860.283 400.882C858.162 399.468 856.217 398.938 854.45 399.291C852.682 399.645 851.445 400.352 850.738 401.412C850.031 402.473 849.854 412.194 850.208 430.576C850.384 439.768 850.561 448.959 850.738 458.15C849.854 457.973 848.97 457.797 848.087 457.62C846.319 457.266 845.082 457.62 844.375 458.68C843.668 459.741 842.431 460.448 840.663 460.801C838.895 461.155 833.239 461.332 823.695 461.332C814.15 461.332 809.024 459.741 808.317 456.559C807.61 453.378 807.433 442.065 807.787 422.623C808.14 403.18 807.433 392.751 805.666 391.337C803.898 389.923 802.307 389.216 800.893 389.216C799.479 389.216 798.065 389.746 796.651 390.807ZM1013.53 398.761C1012.47 399.468 1011.94 401.589 1011.94 405.124C1011.94 408.659 1012.47 412.371 1013.53 416.259C1014.59 420.148 1016.18 438.354 1018.3 470.876C1020.42 503.399 1022.54 521.074 1024.66 523.902C1026.78 526.73 1028.73 528.498 1030.5 529.205C1032.26 529.912 1034.03 529.382 1035.8 527.614C1037.57 525.847 1038.45 524.079 1038.45 522.312C1038.45 520.544 1038.1 519.483 1037.39 519.13C1036.68 518.776 1035.8 515.241 1034.74 508.525C1033.68 501.808 1032.26 482.896 1030.5 451.787C1028.73 420.678 1027.67 404.417 1027.31 403.003C1026.96 401.589 1025.9 400.352 1024.13 399.291C1022.37 398.231 1020.42 397.7 1018.3 397.7C1016.18 397.7 1014.59 398.054 1013.53 398.761ZM1051.71 400.352C1050.65 402.119 1050.12 408.482 1050.12 419.441C1050.12 430.4 1050.65 436.763 1051.71 438.53C1052.77 440.298 1053.65 445.954 1054.36 455.499C1055.06 465.043 1055.95 470.523 1057.01 471.937C1058.07 473.351 1058.78 477.416 1059.13 484.133C1059.48 490.849 1060.19 495.445 1061.25 497.92C1062.31 500.394 1063.2 504.813 1063.9 511.176C1064.61 517.539 1065.67 521.781 1067.08 523.902C1068.5 526.023 1069.91 527.261 1071.33 527.614C1072.74 527.968 1074.51 526.907 1076.63 524.433C1078.75 521.958 1078.57 514.534 1076.1 502.162C1073.62 489.789 1072.39 481.658 1072.39 477.77C1072.39 473.881 1072.03 471.76 1071.33 471.407C1070.62 471.053 1069.56 466.988 1068.14 459.211C1066.73 451.433 1065.67 440.828 1064.96 427.395C1064.26 413.962 1063.55 405.831 1062.84 403.003C1062.14 400.175 1060.37 398.584 1057.54 398.231C1054.71 397.877 1052.77 398.584 1051.71 400.352ZM482.207 408.306C483.974 408.306 485.389 409.013 486.449 410.427C487.51 411.841 490.514 412.548 495.463 412.548C500.413 412.548 508.543 411.841 519.855 410.427C531.168 409.013 539.652 409.189 545.308 410.957C550.964 412.724 555.206 414.845 558.034 417.32C560.862 419.795 563.69 424.213 566.518 430.576C569.346 436.94 571.114 444.717 571.821 453.908C572.528 463.099 571.644 471.407 569.17 478.83C566.695 486.254 563.867 491.91 560.685 495.799C557.504 499.687 553.615 502.162 549.02 503.222C544.424 504.283 537.531 504.636 528.34 504.283C519.148 503.929 510.488 502.162 502.357 498.98C494.226 495.799 488.747 493.147 485.919 491.026C483.091 488.905 481.323 488.021 480.616 488.375C479.909 488.728 478.142 487.491 475.314 484.663C472.486 481.835 469.834 476.002 467.36 467.164C464.885 458.327 463.648 451.61 463.648 447.015C463.648 442.419 465.239 435.879 468.42 427.395C471.602 418.911 474.253 413.608 476.374 411.487C478.495 409.366 480.439 408.306 482.207 408.306ZM661.965 419.441C661.258 420.502 658.96 421.739 655.072 423.153C651.183 424.567 649.239 425.627 649.239 426.334C649.239 427.041 643.583 431.46 632.271 439.591C620.958 447.722 614.419 452.671 612.651 454.438C610.883 456.206 609.646 458.15 608.939 460.271C608.586 461.332 608.232 462.392 607.879 463.453C609.469 463.806 611.06 464.16 612.651 464.513C615.833 465.22 619.014 465.043 622.196 463.983C625.377 462.922 631.387 458.68 640.225 451.257C649.062 443.833 654.011 440.121 655.072 440.121C656.132 440.121 658.607 438 662.495 433.758C666.384 429.516 668.328 426.334 668.328 424.213C668.328 422.092 667.445 420.502 665.677 419.441C663.91 418.38 662.672 418.38 661.965 419.441ZM1116.93 443.833C1111.98 446.308 1108.62 448.959 1106.85 451.787C1105.09 454.615 1103.67 456.206 1102.61 456.559C1101.55 456.913 1099.96 459.211 1097.84 463.453C1095.72 467.695 1094.3 472.644 1093.6 478.3C1092.89 483.956 1093.95 490.496 1096.78 497.92C1099.61 505.343 1102.08 510.292 1104.2 512.767C1106.32 515.241 1108.97 517.362 1112.16 519.13C1115.34 520.898 1120.46 523.019 1127.53 525.493C1134.6 527.968 1140.79 529.735 1146.09 530.796C1151.4 531.856 1157.58 531.856 1164.65 530.796C1171.72 529.735 1176.14 528.144 1177.91 526.023C1179.68 523.902 1180.21 521.958 1179.5 520.191C1179.15 519.307 1178.79 518.423 1178.44 517.539C1177.56 517.893 1176.67 518.246 1175.79 518.6C1174.02 519.307 1168.54 519.483 1159.35 519.13C1150.16 518.776 1141.14 517.009 1132.31 513.827C1123.47 510.646 1117.64 507.464 1114.81 504.283C1111.98 501.101 1109.86 497.036 1108.44 492.087C1107.03 487.138 1106.5 484.133 1106.85 483.072C1107.21 482.012 1110.04 481.835 1115.34 482.542C1120.64 483.249 1127.53 483.072 1136.02 482.012C1144.5 480.951 1150.34 479.714 1153.52 478.3C1156.7 476.886 1159.35 474.411 1161.47 470.876C1163.59 467.341 1164.48 463.629 1164.12 459.741C1163.77 455.852 1162 452.317 1158.82 449.136C1155.64 445.954 1152.46 443.656 1149.27 442.242C1146.09 440.828 1141.14 440.121 1134.43 440.121C1127.71 440.121 1121.88 441.358 1116.93 443.833ZM1136.02 450.726C1138.85 450.726 1141.5 451.257 1143.97 452.317C1146.45 453.378 1148.04 455.675 1148.74 459.211C1149.45 462.746 1149.27 465.043 1148.21 466.104C1147.15 467.164 1145.39 468.225 1142.91 469.286C1140.44 470.346 1136.37 471.053 1130.72 471.407C1125.06 471.76 1120.29 471.583 1116.4 470.876C1114.45 470.523 1112.51 470.169 1110.57 469.816C1110.74 468.932 1110.92 468.048 1111.1 467.164C1111.45 465.397 1112.33 464.16 1113.75 463.453C1115.16 462.746 1116.4 461.155 1117.46 458.68C1118.52 456.206 1121.17 454.261 1125.41 452.847C1129.65 451.433 1133.19 450.726 1136.02 450.726ZM920.202 459.211C914.192 460.625 910.657 462.039 909.597 463.453C908.536 464.867 906.946 465.927 904.825 466.634C902.703 467.341 899.875 470.169 896.34 475.118C892.805 480.067 890.684 482.542 889.977 482.542C889.27 482.542 887.326 486.254 884.144 493.677C880.963 501.101 879.372 506.757 879.372 510.646C879.372 514.534 879.902 518.246 880.963 521.781C882.023 525.316 883.437 527.968 885.205 529.735C886.972 531.503 890.684 532.74 896.34 533.447C901.996 534.154 907.653 533.801 913.309 532.386C918.965 530.972 925.151 527.968 931.868 523.372C935.226 521.074 938.584 518.776 941.943 516.479C943.71 519.13 945.478 521.781 947.245 524.433C950.78 529.735 953.785 532.563 956.26 532.917C958.734 533.27 959.972 533.801 959.972 534.508C959.972 534.861 959.972 535.215 959.972 535.568C962.446 535.038 964.921 534.508 967.395 533.977C972.344 532.917 975.172 531.503 975.879 529.735C976.233 528.851 976.586 527.968 976.94 527.084C976.233 526.907 975.526 526.73 974.819 526.554C973.405 526.2 972.698 525.67 972.698 524.963C972.698 524.609 972.698 524.256 972.698 523.902C970.93 524.079 969.163 524.256 967.395 524.433C963.86 524.786 960.679 522.665 957.851 518.069C955.023 513.474 953.608 505.52 953.608 494.208C953.608 482.896 953.078 475.825 952.018 472.997C950.957 470.169 950.073 468.225 949.366 467.164C948.659 466.104 947.422 465.397 945.655 465.043C943.887 464.69 942.65 463.629 941.943 461.862C941.236 460.094 938.938 458.857 935.049 458.15C931.161 457.443 926.212 457.797 920.202 459.211ZM1416 466.104C1416.7 467.164 1417.23 472.821 1417.59 483.072C1417.94 493.324 1417.59 500.748 1416.53 505.343C1415.47 509.939 1414.58 512.767 1413.87 513.827C1413.17 514.888 1410.16 515.065 1404.86 514.358C1399.56 513.651 1395.32 511.706 1392.13 508.525C1388.95 505.343 1387.54 500.924 1387.89 495.268C1388.25 489.612 1389.66 484.486 1392.13 479.891C1394.61 475.295 1397.44 471.937 1400.62 469.816C1403.8 467.695 1406.98 466.281 1410.16 465.574C1413.34 464.867 1415.29 465.043 1416 466.104ZM397.896 472.467C391.532 476.356 389.058 479.537 390.472 482.012C391.886 484.486 394.184 485.724 397.365 485.724C400.547 485.724 405.849 483.956 413.273 480.421C420.697 476.886 424.585 474.588 424.939 473.528C425.116 472.997 425.292 472.467 425.469 471.937C424.939 471.76 424.409 471.583 423.878 471.407C422.818 471.053 422.288 470.346 422.288 469.286C422.288 468.225 419.813 467.518 414.864 467.164C409.915 466.811 404.259 468.578 397.896 472.467ZM930.807 469.286C933.989 469.639 935.933 472.467 936.64 477.77C937.347 483.072 937.524 488.552 937.17 494.208C936.817 499.864 934.342 505.166 929.747 510.116C925.151 515.065 921.086 518.423 917.551 520.191C914.016 521.958 909.597 523.019 904.294 523.372C898.992 523.726 895.81 523.195 894.75 521.781C893.689 520.367 893.512 515.772 894.219 507.995C894.926 500.217 897.401 493.147 901.643 486.784C905.885 480.421 911.011 475.825 917.021 472.997C923.03 470.169 927.626 468.932 930.807 469.286ZM1222.45 474.588C1216.44 477.063 1212.2 479.714 1209.72 482.542C1207.25 485.37 1205.66 486.607 1204.95 486.254C1204.24 485.9 1203.54 483.603 1202.83 479.36C1202.12 475.118 1200.71 472.997 1198.59 472.997C1196.47 472.997 1194.52 475.295 1192.76 479.891C1190.99 484.486 1189.93 491.026 1189.57 499.51C1189.22 507.995 1189.75 512.944 1191.17 514.358C1192.58 515.772 1195.23 516.302 1199.12 515.948C1203.01 515.595 1206.19 512.767 1208.66 507.464C1211.14 502.162 1212.91 499.51 1213.97 499.51C1214.5 499.51 1215.03 499.51 1215.56 499.51C1215.56 498.98 1215.56 498.45 1215.56 497.92C1215.56 496.859 1217.5 494.561 1221.39 491.026C1225.28 487.491 1228.28 485.547 1230.4 485.193C1232.53 484.84 1234.65 485.547 1236.77 487.314C1238.89 489.082 1241.01 491.91 1243.13 495.799C1245.25 499.687 1246.67 506.58 1247.37 516.479C1248.08 526.377 1249.14 531.856 1250.55 532.917C1251.97 533.977 1254.09 534.331 1256.92 533.977C1259.75 533.624 1261.51 532.74 1262.22 531.326C1262.93 529.912 1262.93 524.609 1262.22 515.418C1261.51 506.227 1258.51 497.566 1253.21 489.435C1247.9 481.305 1242.95 476.179 1238.36 474.058C1233.76 471.937 1228.46 472.114 1222.45 474.588ZM1322.67 477.239C1327.27 478.123 1331.86 479.007 1336.46 479.891C1345.65 481.658 1352.01 484.486 1355.55 488.375C1359.08 492.263 1361.03 495.622 1361.38 498.45C1361.73 501.278 1361.38 504.459 1360.32 507.995C1359.26 511.53 1356.96 515.065 1353.42 518.6C1349.89 522.135 1345.29 523.902 1339.64 523.902C1333.98 523.902 1329.92 522.842 1327.44 520.721C1324.97 518.6 1323.2 515.065 1322.14 510.116C1321.08 505.166 1320.9 498.45 1321.61 489.966C1321.96 485.724 1322.32 481.481 1322.67 477.239ZM626.438 507.464C626.615 508.348 626.791 509.232 626.968 510.116C625.024 509.939 623.079 509.762 621.135 509.585C617.247 509.232 614.419 509.939 612.651 511.706C610.883 513.474 610 515.065 610 516.479C610 517.893 610.883 520.014 612.651 522.842C614.419 525.67 617.423 528.851 621.665 532.386C625.908 535.922 630.326 538.926 634.922 541.401C639.518 543.875 643.76 545.466 647.648 546.173C651.537 546.88 654.542 546.527 656.663 545.113C658.784 543.699 660.551 541.931 661.965 539.81C663.379 537.689 663.733 535.568 663.026 533.447C662.319 531.326 658.784 528.498 652.421 524.963C646.057 521.428 642.522 518.953 641.815 517.539C641.108 516.125 639.341 514.534 636.513 512.767C633.685 510.999 631.917 509.232 631.21 507.464C630.503 505.697 629.443 504.813 628.029 504.813C627.322 504.813 626.615 504.813 625.908 504.813C626.084 505.697 626.261 506.58 626.438 507.464ZM431.832 541.931C424.055 547.587 419.813 551.122 419.106 552.536C418.399 553.95 418.399 556.071 419.106 558.9C419.813 561.728 422.641 562.611 427.59 561.551C432.539 560.49 438.019 556.955 444.028 550.946C450.038 544.936 452.866 540.694 452.512 538.219C452.159 535.745 450.568 534.331 447.74 533.977C444.912 533.624 439.609 536.275 431.832 541.931ZM591.971 544.582C591.971 545.643 589.673 546.35 585.077 546.704C580.482 547.057 577.477 548.118 576.063 549.885C574.649 551.653 574.119 553.597 574.472 555.718C574.826 557.839 577.477 561.197 582.426 565.793C587.375 570.388 591.264 573.217 594.092 574.277C596.92 575.338 598.334 576.221 598.334 576.928C598.334 577.635 600.102 578.519 603.637 579.58C607.172 580.64 610.176 580.817 612.651 580.11C615.126 579.403 617.423 577.812 619.544 575.338C621.665 572.863 622.903 570.742 623.256 568.974C623.61 567.207 623.433 565.793 622.726 564.732C622.019 563.672 620.782 562.965 619.014 562.611C617.247 562.258 613.535 559.43 607.879 554.127C602.223 548.825 598.157 545.643 595.683 544.582C594.445 544.052 593.208 543.522 591.971 542.992C591.971 543.522 591.971 544.052 591.971 544.582ZM500.236 559.43C497.054 561.904 494.58 566.853 492.812 574.277C491.045 581.701 490.161 587.357 490.161 591.245C490.161 595.134 489.807 597.432 489.1 598.139C488.393 598.846 488.04 600.79 488.04 603.972C488.04 607.153 488.393 609.098 489.1 609.805C489.807 610.512 491.398 610.688 493.873 610.335C496.347 609.981 498.468 608.921 500.236 607.153C502.003 605.386 504.655 600.79 508.19 593.366C511.725 585.943 513.846 578.166 514.553 570.035C515.26 561.904 513.846 557.485 510.311 556.778C506.776 556.071 503.417 556.955 500.236 559.43ZM498.645 698.888C485.919 701.009 475.314 704.191 466.829 708.433C458.345 712.675 450.215 725.048 442.437 745.551C434.66 766.055 430.948 780.018 431.302 787.442C431.655 794.865 432.716 801.582 434.484 807.592C436.251 813.601 437.842 818.374 439.256 821.909C440.67 825.444 441.73 827.211 442.437 827.211C443.144 827.211 443.851 828.272 444.558 830.393C445.265 832.514 447.387 835.695 450.922 839.938C454.457 844.18 457.638 847.008 460.466 848.422C463.294 849.836 464.708 850.896 464.708 851.603C464.708 851.957 464.708 852.31 464.708 852.664C465.415 852.664 466.122 852.664 466.829 852.664C467.536 852.664 468.243 852.664 468.95 852.664C468.95 853.017 468.95 853.371 468.95 853.724C468.95 854.078 468.95 854.431 468.95 854.785C469.834 854.785 470.718 854.785 471.602 854.785C473.369 854.785 476.904 856.022 482.207 858.497C487.51 860.971 497.231 863.269 511.371 865.39C525.512 867.511 537.354 868.218 546.899 867.511C556.443 866.804 563.16 866.097 567.049 865.39C570.937 864.683 573.412 863.799 574.472 862.739C575.533 861.678 576.593 861.325 577.654 861.678C578.714 862.032 583.84 858.85 593.031 852.134C602.223 845.417 607.879 839.231 610 833.574C612.121 827.918 614.772 822.616 617.954 817.667C621.135 812.718 623.079 809.006 623.786 806.531C624.493 804.057 624.317 797.693 623.256 787.442C622.196 777.19 618.837 766.585 613.181 755.626C607.525 744.667 602.576 737.244 598.334 733.355C594.092 729.467 588.789 725.932 582.426 722.75C576.063 719.568 571.114 716.564 567.579 713.736C564.044 710.908 560.685 709.14 557.504 708.433C554.322 707.726 552.732 706.312 552.732 704.191C552.732 702.07 551.671 700.479 549.55 699.419C547.429 698.358 541.596 697.474 532.051 696.767C522.507 696.06 511.371 696.767 498.645 698.888ZM833.77 711.615C828.114 712.322 821.927 714.443 815.211 717.978C808.494 721.513 800.363 727.522 790.819 736.007C781.274 744.491 776.325 749.44 775.971 750.854C775.618 752.268 774.557 753.505 772.79 754.566C771.022 755.626 768.901 757.924 766.427 761.459C763.952 764.994 762.715 767.292 762.715 768.352C762.715 769.413 762.008 770.297 760.594 771.004C759.18 771.711 758.473 772.948 758.473 774.716C758.473 776.483 757.766 778.604 756.352 781.079C754.938 783.553 754.761 789.033 755.821 797.517C756.882 806.001 758.649 812.01 761.124 815.546C763.598 819.081 766.603 821.732 770.138 823.499C773.673 825.267 775.441 826.504 775.441 827.211C775.441 827.918 779.33 829.509 787.107 831.984C794.884 834.458 802.661 835.695 810.438 835.695C814.327 835.695 818.215 835.695 822.104 835.695C822.104 835.342 822.104 834.988 822.104 834.635C822.104 833.928 825.992 833.044 833.77 831.984C841.547 830.923 846.496 829.863 848.617 828.802C850.738 827.742 853.036 825.797 855.51 822.969C857.985 820.141 860.459 816.076 862.934 810.773C865.408 805.471 866.646 800.875 866.646 796.986C866.646 793.098 865.585 789.563 863.464 786.381C861.343 783.2 857.985 780.548 853.389 778.427C848.794 776.306 844.905 775.246 841.724 775.246C838.542 775.246 835.714 775.776 833.239 776.837C830.765 777.897 828.114 780.195 825.285 783.73C822.457 787.265 821.22 789.916 821.574 791.684C821.927 793.451 822.634 794.689 823.695 795.396C824.755 796.103 827.053 796.103 830.588 795.396C834.123 794.689 836.067 793.805 836.421 792.744C836.774 791.684 838.188 790.623 840.663 789.563C843.138 788.502 845.435 788.856 847.556 790.623C849.677 792.391 850.915 793.982 851.268 795.396C851.622 796.81 850.915 799.284 849.147 802.819C847.38 806.354 846.142 808.122 845.435 808.122C845.082 808.122 844.728 808.122 844.375 808.122C844.375 808.829 844.375 809.536 844.375 810.243C844.375 811.657 843.668 812.541 842.254 812.894C840.84 813.248 839.602 814.132 838.542 815.546C837.481 816.96 833.239 818.374 825.816 819.788C818.392 821.202 809.908 821.555 800.363 820.848C790.819 820.141 785.516 819.081 784.455 817.667C783.395 816.253 781.627 815.015 779.153 813.955C776.678 812.894 774.911 811.303 773.85 809.182C772.79 807.061 772.083 803.526 771.729 798.577C771.376 793.628 771.552 790.977 772.259 790.623C772.966 790.27 773.497 788.326 773.85 784.79C774.204 781.255 775.441 777.897 777.562 774.716C779.683 771.534 781.274 769.766 782.334 769.413C783.395 769.059 783.925 768.352 783.925 767.292C783.925 766.231 786.4 763.227 791.349 758.277C796.298 753.328 799.656 750.5 801.424 749.793C803.191 749.086 805.666 746.788 808.847 742.9C812.029 739.011 815.387 736.183 818.922 734.416C822.457 732.648 824.578 731.057 825.285 729.643C825.639 728.936 825.992 728.229 826.346 727.522C826.699 727.699 827.053 727.876 827.406 728.053C828.114 728.406 830.058 727.699 833.239 725.932C836.421 724.164 840.133 723.634 844.375 724.341C848.617 725.048 851.798 725.048 853.92 724.341C856.041 723.634 857.278 722.396 857.631 720.629C857.985 718.861 857.631 717.094 856.571 715.326C855.51 713.559 852.859 712.322 848.617 711.615C844.375 710.908 839.426 710.908 833.77 711.615ZM526.219 718.508C529.754 722.396 533.289 724.694 536.824 725.401C540.359 726.108 547.075 729.29 556.974 734.946C566.872 740.602 573.412 745.198 576.593 748.733C579.775 752.268 583.133 757.57 586.668 764.641C590.203 771.711 592.324 779.134 593.031 786.912C593.738 794.689 593.738 800.168 593.031 803.35C592.324 806.531 591.264 809.536 589.85 812.364C588.436 815.192 587.375 816.606 586.668 816.606C585.961 816.606 584.547 819.257 582.426 824.56C580.305 829.863 576.77 834.281 571.821 837.817C566.872 841.352 562.276 843.649 558.034 844.71C553.792 845.77 547.252 846.477 538.415 846.831C529.577 847.184 518.618 845.77 505.538 842.589C492.459 839.407 483.798 836.402 479.556 833.574C475.314 830.746 471.248 825.444 467.36 817.667C463.471 809.889 460.997 802.112 459.936 794.335C458.875 786.558 462.057 773.125 469.481 754.035C476.904 734.946 483.444 723.987 489.1 721.159C494.756 718.331 501.473 716.21 509.25 714.796C517.027 713.382 522.683 714.619 526.219 718.508ZM1029.44 721.159C1027.67 721.866 1026.78 723.103 1026.78 724.871C1026.78 726.639 1027.67 728.229 1029.44 729.643C1031.2 731.057 1033.68 731.588 1036.86 731.234C1038.45 731.057 1040.04 730.881 1041.63 730.704C1041.45 729.29 1041.28 727.876 1041.1 726.462C1040.75 723.634 1039.16 721.866 1036.33 721.159C1033.5 720.452 1031.2 720.452 1029.44 721.159ZM1051.71 729.643C1050.65 731.057 1050.29 732.648 1050.65 734.416C1051 736.183 1053.12 737.774 1057.01 739.188C1060.9 740.602 1063.73 740.956 1065.49 740.249C1067.26 739.542 1068.14 738.128 1068.14 736.007C1068.14 733.885 1067.61 732.295 1066.55 731.234C1065.49 730.174 1063.02 729.29 1059.13 728.583C1055.24 727.876 1052.77 728.229 1051.71 729.643ZM933.989 767.822C928.686 770.65 924.621 773.478 921.793 776.306C918.965 779.134 917.374 781.255 917.021 782.669C916.844 783.376 916.667 784.083 916.49 784.79C915.253 784.437 914.016 784.083 912.778 783.73C910.304 783.023 907.829 783.023 905.355 783.73C902.88 784.437 901.466 789.563 901.113 799.107C900.759 808.652 900.936 813.601 901.643 813.955C902.35 814.308 902.88 816.606 903.234 820.848C903.587 825.09 904.471 827.918 905.885 829.332C907.299 830.746 909.774 831.453 913.309 831.453C916.844 831.453 918.788 828.979 919.142 824.03C919.495 819.081 920.202 815.899 921.263 814.485C922.323 813.071 923.207 810.243 923.914 806.001C924.621 801.759 927.272 796.456 931.868 790.093C936.463 783.73 939.468 780.372 940.882 780.018C942.296 779.665 943.534 778.781 944.594 777.367C945.655 775.953 947.422 775.246 949.897 775.246C952.371 775.246 954.492 775.953 956.26 777.367C958.027 778.781 959.795 778.958 961.562 777.897C963.33 776.837 964.214 775.423 964.214 773.655C964.214 772.771 964.214 771.887 964.214 771.004C963.683 771.004 963.153 771.004 962.623 771.004C961.562 771.004 960.325 769.943 958.911 767.822C957.497 765.701 954.315 764.464 949.366 764.11C944.417 763.757 939.291 764.994 933.989 767.822ZM1253.21 771.004C1247.9 772.418 1242.95 775.246 1238.36 779.488C1233.76 783.73 1230.76 788.502 1229.34 793.805C1227.93 799.107 1226.34 803.173 1224.57 806.001C1222.8 808.829 1221.74 812.541 1221.39 817.136C1221.04 821.732 1221.39 825.267 1222.45 827.742C1223.51 830.216 1225.1 832.514 1227.22 834.635C1229.34 836.756 1234.82 839.584 1243.66 843.119C1252.5 846.654 1264.69 848.422 1280.25 848.422C1295.8 848.422 1303.93 846.831 1304.64 843.649C1304.99 842.059 1305.35 840.468 1305.7 838.877C1299.87 838.877 1294.04 838.877 1288.2 838.877C1276.54 838.877 1266.46 837.64 1257.98 835.165C1249.49 832.691 1243.84 830.393 1241.01 828.272C1238.18 826.151 1236.94 822.439 1237.3 817.136C1237.65 811.834 1238.36 808.829 1239.42 808.122C1240.48 807.415 1244.01 807.238 1250.02 807.592C1256.03 807.945 1261.34 807.768 1265.93 807.061C1270.53 806.354 1274.42 805.647 1277.6 804.94C1280.78 804.233 1283.96 802.643 1287.14 800.168C1290.32 797.693 1291.91 794.689 1291.91 791.154C1291.91 787.619 1291.21 784.26 1289.79 781.079C1288.38 777.897 1286.08 775.423 1282.9 773.655C1279.72 771.887 1275.3 770.65 1269.64 769.943C1263.99 769.236 1258.51 769.59 1253.21 771.004ZM1124.35 773.125C1122.94 774.539 1122.76 776.306 1123.82 778.427C1124.88 780.548 1130.54 782.846 1140.79 785.321C1151.04 787.795 1156.52 789.916 1157.23 791.684C1157.94 793.451 1157.58 795.572 1156.17 798.047C1154.75 800.522 1153.16 802.112 1151.4 802.819C1149.63 803.526 1148.39 804.587 1147.68 806.001C1146.98 807.415 1146.09 808.122 1145.03 808.122C1143.97 808.122 1143.26 808.652 1142.91 809.713C1142.56 810.773 1141.67 811.303 1140.26 811.303C1139.55 811.303 1138.85 811.303 1138.14 811.303C1138.32 811.657 1138.49 812.01 1138.67 812.364C1138.85 812.718 1139.02 813.071 1139.2 813.425C1138.49 813.601 1137.79 813.778 1137.08 813.955C1135.66 814.308 1134.6 815.192 1133.9 816.606C1133.19 818.02 1132.31 818.727 1131.25 818.727C1130.19 818.727 1129.12 819.434 1128.06 820.848C1127 822.262 1126.12 822.792 1125.41 822.439C1124.71 822.085 1123.82 822.792 1122.76 824.56C1121.7 826.328 1118.7 828.272 1113.75 830.393C1108.8 832.514 1105.44 834.458 1103.67 836.226C1101.9 837.993 1101.2 840.114 1101.55 842.589C1101.9 845.063 1105.09 847.538 1111.1 850.012C1117.11 852.487 1124.35 854.078 1132.84 854.785C1141.32 855.492 1147.68 854.962 1151.93 853.194C1156.17 851.427 1161.47 850.189 1167.83 849.482C1174.2 848.775 1177.56 848.068 1177.91 847.361C1178.26 846.654 1179.5 846.477 1181.62 846.831C1182.68 847.008 1183.74 847.184 1184.8 847.361C1184.8 847.008 1184.8 846.654 1184.8 846.301C1184.8 845.947 1184.8 845.594 1184.8 845.24C1185.86 845.417 1186.92 845.594 1187.98 845.77C1190.1 846.124 1191.34 845.947 1191.7 845.24C1192.05 844.533 1193.46 844.003 1195.94 843.649C1198.41 843.296 1199.65 841.705 1199.65 838.877C1199.65 837.463 1199.65 836.049 1199.65 834.635C1194.35 834.988 1189.04 835.342 1183.74 835.695C1173.14 836.402 1163.41 837.817 1154.58 839.938C1145.74 842.059 1138.85 842.766 1133.9 842.059C1128.95 841.352 1126.3 840.645 1125.94 839.938C1125.59 839.231 1125.94 838.347 1127 837.286C1128.06 836.226 1129.83 835.165 1132.31 834.105C1134.78 833.044 1137.26 831.1 1139.73 828.272C1142.2 825.444 1145.03 823.323 1148.21 821.909C1151.4 820.495 1154.22 818.374 1156.7 815.546C1159.17 812.718 1160.76 811.48 1161.47 811.834C1162.18 812.187 1164.65 809.536 1168.89 803.88C1173.14 798.224 1175.08 793.982 1174.73 791.154C1174.37 788.326 1172.78 785.851 1169.95 783.73C1167.13 781.609 1164.3 780.372 1161.47 780.018C1158.64 779.665 1156.87 778.958 1156.17 777.897C1155.46 776.837 1154.75 776.483 1154.05 776.837C1153.34 777.19 1151.75 776.66 1149.27 775.246C1146.8 773.832 1142.38 772.771 1136.02 772.064C1129.65 771.357 1125.77 771.711 1124.35 773.125ZM1486.52 777.897C1480.51 779.665 1475.38 783.73 1471.14 790.093C1466.9 796.456 1464.6 802.819 1464.25 809.182C1463.9 815.546 1465.66 822.085 1469.55 828.802C1473.44 835.519 1476.62 839.407 1479.1 840.468C1481.57 841.528 1484.4 841.882 1487.58 841.528C1490.76 841.175 1495.71 837.64 1502.43 830.923C1505.79 827.565 1509.14 824.206 1512.5 820.848C1513.39 823.323 1514.27 825.797 1515.15 828.272C1516.92 833.221 1518.34 835.872 1519.4 836.226C1520.46 836.579 1521.16 837.463 1521.52 838.877C1521.87 840.291 1523.46 842.412 1526.29 845.24C1529.12 848.068 1532.48 850.366 1536.36 852.134C1540.25 853.901 1544.32 854.962 1548.56 855.315C1552.8 855.669 1556.34 855.492 1559.17 854.785C1561.99 854.078 1566.94 850.72 1574.01 844.71C1581.08 838.7 1584.8 835.165 1585.15 834.105C1585.5 833.044 1584.97 832.16 1583.56 831.453C1582.14 830.746 1579.32 831.984 1575.07 835.165C1570.83 838.347 1566.59 840.645 1562.35 842.059C1558.11 843.473 1554.04 844.003 1550.15 843.649C1546.26 843.296 1542.9 842.235 1540.08 840.468C1537.25 838.7 1535.13 836.579 1533.71 834.105C1532.3 831.63 1531.06 830.216 1530 829.863C1528.94 829.509 1527 825.267 1524.17 817.136C1521.34 809.006 1519.93 803.35 1519.93 800.168C1519.93 796.986 1520.46 794.689 1521.52 793.275C1522.58 791.861 1522.93 789.563 1522.58 786.381C1522.22 783.2 1520.99 780.902 1518.87 779.488C1516.75 778.074 1512.33 777.013 1505.61 776.306C1498.89 775.599 1492.53 776.13 1486.52 777.897ZM998.15 782.139C996.736 784.614 995.676 785.851 994.969 785.851C994.615 785.851 994.262 785.851 993.908 785.851C994.085 786.204 994.262 786.558 994.439 786.912C994.792 787.619 993.908 790.093 991.787 794.335C989.666 798.577 988.959 804.764 989.666 812.894C990.373 821.025 992.317 827.388 995.499 831.984C998.681 836.579 1002.92 839.938 1008.23 842.059C1013.53 844.18 1018.83 845.24 1024.13 845.24C1029.44 845.24 1033.5 844.533 1036.33 843.119C1039.16 841.705 1041.28 841.175 1042.69 841.528C1044.11 841.882 1044.99 841.528 1045.34 840.468C1045.7 839.407 1048.35 837.64 1053.3 835.165C1058.25 832.691 1061.25 829.686 1062.31 826.151C1063.37 822.616 1064.26 820.848 1064.96 820.848C1065.32 820.848 1065.67 820.848 1066.02 820.848C1066.02 819.964 1066.02 819.081 1066.02 818.197C1066.02 816.429 1065.67 813.071 1064.96 808.122C1064.26 803.173 1063.37 799.461 1062.31 796.986C1061.25 794.512 1060.01 793.098 1058.6 792.744C1057.19 792.391 1056.48 791.861 1056.48 791.154C1056.48 790.8 1056.48 790.447 1056.48 790.093C1055.6 790.093 1054.71 790.093 1053.83 790.093C1052.06 790.093 1051 790.447 1050.65 791.154C1050.29 791.861 1049.94 796.633 1049.59 805.471C1049.23 814.308 1048.35 819.788 1046.93 821.909C1045.52 824.03 1041.81 826.504 1035.8 829.332C1029.79 832.16 1024.31 833.044 1019.36 831.984C1014.41 830.923 1010.88 828.979 1008.76 826.151C1006.63 823.323 1005.4 818.727 1005.04 812.364C1004.87 809.182 1004.69 806.001 1004.51 802.819C1004.87 802.819 1005.22 802.819 1005.57 802.819C1005.93 802.819 1006.28 802.819 1006.63 802.819C1006.63 801.582 1006.63 800.345 1006.63 799.107C1006.63 797.87 1006.63 796.633 1006.63 795.396C1006.99 795.396 1007.34 795.396 1007.7 795.396C1008.05 795.396 1008.4 795.396 1008.76 795.396C1008.58 795.042 1008.4 794.689 1008.23 794.335C1007.87 793.628 1008.58 792.037 1010.35 789.563C1012.11 787.088 1012.47 784.79 1011.41 782.669C1010.35 780.548 1008.23 779.311 1005.04 778.958C1001.86 778.604 999.564 779.665 998.15 782.139ZM1268.58 781.609C1273.53 782.316 1276.18 784.083 1276.54 786.912C1276.89 789.74 1276.71 791.507 1276.01 792.214C1275.3 792.921 1271.23 793.982 1263.81 795.396C1256.39 796.81 1251.26 797.34 1248.43 796.986C1245.61 796.633 1244.19 795.749 1244.19 794.335C1244.19 792.921 1244.9 791.33 1246.31 789.563C1247.73 787.795 1250.55 785.851 1254.8 783.73C1259.04 781.609 1263.63 780.902 1268.58 781.609ZM1494.47 785.851C1496.6 786.028 1498.72 786.204 1500.84 786.381C1502.96 786.558 1505.08 786.735 1507.2 786.912C1507.02 789.563 1506.85 792.214 1506.67 794.865C1506.32 800.168 1504.9 805.647 1502.43 811.303C1499.95 816.96 1496.95 821.555 1493.41 825.09C1489.88 828.625 1487.4 830.393 1485.99 830.393C1484.58 830.393 1482.63 828.272 1480.16 824.03C1477.68 819.788 1476.45 815.192 1476.45 810.243C1476.45 807.768 1476.45 805.294 1476.45 802.819C1476.98 802.819 1477.51 802.819 1478.04 802.819C1479.1 802.819 1480.69 800.875 1482.81 796.986C1484.93 793.098 1487.4 790.623 1490.23 789.563C1493.06 788.502 1494.47 787.619 1494.47 786.912C1494.47 786.558 1494.47 786.204 1494.47 785.851ZM1339.11 792.744C1338.05 795.219 1337.52 801.405 1337.52 811.303C1337.52 821.202 1337.16 827.565 1336.46 830.393C1335.75 833.221 1335.4 836.756 1335.4 840.998C1335.4 845.24 1335.93 847.715 1336.99 848.422C1338.05 849.129 1339.99 849.659 1342.82 850.012C1345.65 850.366 1347.77 850.012 1349.18 848.952C1350.6 847.891 1351.66 845.594 1352.36 842.059C1353.07 838.524 1353.78 836.756 1354.49 836.756C1355.19 836.756 1356.78 833.574 1359.26 827.211C1361.73 820.848 1364.38 816.076 1367.21 812.894C1368.63 811.303 1370.04 809.713 1371.45 808.122C1371.98 809.359 1372.51 810.596 1373.04 811.834C1374.11 814.308 1374.81 819.081 1375.17 826.151C1375.52 833.221 1376.76 837.463 1378.88 838.877C1381 840.291 1383.65 840.114 1386.83 838.347C1390.01 836.579 1392.84 832.691 1395.32 826.681C1397.79 820.671 1399.38 817.667 1400.09 817.667C1400.79 817.667 1401.86 816.076 1403.27 812.894C1404.68 809.713 1406.63 807.238 1409.1 805.471C1411.58 803.703 1413.52 802.819 1414.94 802.819C1416.35 802.819 1417.41 803.526 1418.12 804.94C1418.82 806.354 1419.18 811.303 1419.18 819.788C1419.18 828.272 1420.06 833.574 1421.83 835.695C1423.6 837.817 1425.19 838.877 1426.6 838.877C1428.01 838.877 1429.43 838.17 1430.84 836.756C1432.26 835.342 1432.96 830.57 1432.96 822.439C1432.96 814.308 1432.08 807.945 1430.31 803.35C1428.55 798.754 1426.95 795.749 1425.54 794.335C1424.13 792.921 1420.94 792.214 1416 792.214C1411.05 792.214 1406.1 794.335 1401.15 798.577C1396.2 802.819 1393.72 805.471 1393.72 806.531C1393.72 807.592 1392.66 809.182 1390.54 811.303C1389.48 812.364 1388.42 813.425 1387.36 814.485C1386.12 811.657 1384.89 808.829 1383.65 806.001C1381.18 800.345 1377.99 797.163 1374.11 796.456C1370.22 795.749 1366.68 796.81 1363.5 799.638C1360.32 802.466 1358.73 804.587 1358.73 806.001C1358.73 807.415 1357.67 809.182 1355.55 811.303C1354.49 812.364 1353.42 813.425 1352.36 814.485C1352.54 810.95 1352.72 807.415 1352.89 803.88C1353.25 796.81 1352.72 792.568 1351.3 791.154C1349.89 789.74 1347.77 789.033 1344.94 789.033C1342.11 789.033 1340.17 790.27 1339.11 792.744Z" fill="#000000" fill-rule="nonzero" opacity="1" stroke="none"/>
</g>
</svg>
